<svg id="Layer_1" data-name="Layer 1" xmlns="http://www.w3.org/2000/svg" viewBox="0 0 186 139.5"><defs><style>.cls-1{fill:#ca68a5;}.cls-2{fill:#eca3a6;}.cls-3{fill:#f0ebe4;}</style></defs><title>closed folder</title><path class="cls-1" d="M134.52,25.92a8.29,8.29,0,0,1,2,.26L123.15,39.24H20.56c-.36,0-.71,0-1.07,0l-.34,0-.72.09-.38.08c-.23,0-.45.09-.67.15l-.38.1-.23.06V34.16a8.18,8.18,0,0,1,8.09-8.24H134.52Z" transform="translate(-9.55 -13.98)"/><path class="cls-2" d="M10.1,25.13c0-5.33,3.91-9.67,8.71-9.67H55.05a8.27,8.27,0,0,1,5.51,2.17l8.28,8.16H25.77a8.86,8.86,0,0,0-8.84,8.84v5.73a11.56,11.56,0,0,0-1.18.55,1.18,1.18,0,0,1-.19.11,11.14,11.14,0,0,0-1.09.69c-.13.08-.25.17-.37.26-.3.23-.59.47-.88.73L13,43A11.32,11.32,0,0,0,12,44c-.07.07-.12.16-.19.24a11.2,11.2,0,0,0-.68,1l-.24.39a9.94,9.94,0,0,0-.54,1l-.15.31a.93.93,0,0,0-.05.1Z" transform="translate(-9.55 -13.98)"/><path class="cls-3" d="M195.55,142a11.51,11.51,0,0,1-11.5,11.5h-163A11.51,11.51,0,0,1,9.55,142V50.48a11.16,11.16,0,0,1,.13-1.72,11.79,11.79,0,0,1,.86-2.95,11.56,11.56,0,0,1,6.51-6.12h0a11.45,11.45,0,0,1,4-.71h99.87L143.2,17.72l.08-.1a8.22,8.22,0,0,1,2.52-2.39l.07-.05a8.22,8.22,0,0,1,4.26-1.2H187.3a8.26,8.26,0,0,1,8.25,8.25Z" transform="translate(-9.55 -13.98)"/></svg>