<svg id="Layer_1" data-name="Layer 1" xmlns="http://www.w3.org/2000/svg" viewBox="0 0 220.45 141.69"><defs><style>.cls-1{fill:#f0ebe4;}.cls-2{fill:#ca68a5;}.cls-3{fill:#eca3a6;}</style></defs><title>open folder</title><path class="cls-1" d="M223.05,50.67H15.8c-8.75,2.5-7,10.5-7,10.5s13.5,71.25,15.25,81,10.75,8.51,10.75,8.51,152-.06,164,0c15.25.06,15.5-7.25,15.5-7.25s11.5-62.25,14.25-77.5S223.05,50.67,223.05,50.67Z" transform="translate(-8.66 -9.04)"/><path class="cls-2" d="M32.05,32.25V50.67h173V32.25a12,12,0,0,0-12-12h-149A12,12,0,0,0,32.05,32.25Z" transform="translate(-8.66 -9.04)"/><path class="cls-3" d="M32.05,32.25a12,12,0,0,1,12-12H85.81l-.38-.58-6.82-6.61-1.22-1.18,0,0A11.92,11.92,0,0,0,69.67,9H37.55a12,12,0,0,0-12,12V50.67h6.5Z" transform="translate(-8.66 -9.04)"/><path class="cls-3" d="M212.55,50.67V45.21a9.75,9.75,0,0,0-7.5-9.48V50.67Z" transform="translate(-8.66 -9.04)"/></svg>